<svg xmlns="http://www.w3.org/2000/svg" viewBox="0 0 256 256" shape-rendering="crispEdges">
  <rect x="15" y="15" width="226" height="226" rx="58" fill="#FFDE21"/>
  <rect x="104" y="38" width="6" height="6" fill="#1A1A17"/>
  <rect x="110" y="38" width="6" height="6" fill="#1A1A17"/>
  <rect x="116" y="38" width="6" height="6" fill="#1A1A17"/>
  <rect x="98" y="44" width="6" height="6" fill="#1A1A17"/>
  <rect x="104" y="44" width="6" height="6" fill="#B8860B"/>
  <rect x="110" y="44" width="6" height="6" fill="#B8860B"/>
  <rect x="116" y="44" width="6" height="6" fill="#B8860B"/>
  <rect x="122" y="44" width="6" height="6" fill="#1A1A17"/>
  <rect x="92" y="50" width="6" height="6" fill="#1A1A17"/>
  <rect x="98" y="50" width="6" height="6" fill="#B8860B"/>
  <rect x="104" y="50" width="6" height="6" fill="#B8860B"/>
  <rect x="110" y="50" width="6" height="6" fill="#B8860B"/>
  <rect x="116" y="50" width="6" height="6" fill="#B8860B"/>
  <rect x="122" y="50" width="6" height="6" fill="#B8860B"/>
  <rect x="128" y="50" width="6" height="6" fill="#1A1A17"/>
  <rect x="92" y="56" width="6" height="6" fill="#1A1A17"/>
  <rect x="98" y="56" width="6" height="6" fill="#B8860B"/>
  <rect x="104" y="56" width="6" height="6" fill="#B8860B"/>
  <rect x="110" y="56" width="6" height="6" fill="#B8860B"/>
  <rect x="116" y="56" width="6" height="6" fill="#B8860B"/>
  <rect x="122" y="56" width="6" height="6" fill="#B8860B"/>
  <rect x="128" y="56" width="6" height="6" fill="#B8860B"/>
  <rect x="134" y="56" width="6" height="6" fill="#1A1A17"/>
  <rect x="98" y="62" width="6" height="6" fill="#1A1A17"/>
  <rect x="104" y="62" width="6" height="6" fill="#B8860B"/>
  <rect x="110" y="62" width="6" height="6" fill="#B8860B"/>
  <rect x="116" y="62" width="6" height="6" fill="#B8860B"/>
  <rect x="122" y="62" width="6" height="6" fill="#B8860B"/>
  <rect x="128" y="62" width="6" height="6" fill="#B8860B"/>
  <rect x="134" y="62" width="6" height="6" fill="#B8860B"/>
  <rect x="140" y="62" width="6" height="6" fill="#1A1A17"/>
  <rect x="104" y="68" width="6" height="6" fill="#1A1A17"/>
  <rect x="110" y="68" width="6" height="6" fill="#B8860B"/>
  <rect x="116" y="68" width="6" height="6" fill="#B8860B"/>
  <rect x="122" y="68" width="6" height="6" fill="#B8860B"/>
  <rect x="128" y="68" width="6" height="6" fill="#B8860B"/>
  <rect x="134" y="68" width="6" height="6" fill="#B8860B"/>
  <rect x="140" y="68" width="6" height="6" fill="#B8860B"/>
  <rect x="146" y="68" width="6" height="6" fill="#1A1A17"/>
  <rect x="110" y="74" width="6" height="6" fill="#1A1A17"/>
  <rect x="116" y="74" width="6" height="6" fill="#B8860B"/>
  <rect x="122" y="74" width="6" height="6" fill="#B8860B"/>
  <rect x="128" y="74" width="6" height="6" fill="#B8860B"/>
  <rect x="134" y="74" width="6" height="6" fill="#B8860B"/>
  <rect x="140" y="74" width="6" height="6" fill="#B8860B"/>
  <rect x="146" y="74" width="6" height="6" fill="#1A1A17"/>
  <rect x="152" y="74" width="6" height="6" fill="#1A1A17"/>
  <rect x="158" y="74" width="6" height="6" fill="#1A1A17"/>
  <rect x="164" y="74" width="6" height="6" fill="#1A1A17"/>
  <rect x="170" y="74" width="6" height="6" fill="#1A1A17"/>
  <rect x="176" y="74" width="6" height="6" fill="#1A1A17"/>
  <rect x="116" y="80" width="6" height="6" fill="#1A1A17"/>
  <rect x="122" y="80" width="6" height="6" fill="#B8860B"/>
  <rect x="128" y="80" width="6" height="6" fill="#B8860B"/>
  <rect x="134" y="80" width="6" height="6" fill="#B8860B"/>
  <rect x="140" y="80" width="6" height="6" fill="#B8860B"/>
  <rect x="146" y="80" width="6" height="6" fill="#1A1A17"/>
  <rect x="152" y="80" width="6" height="6" fill="#B8860B"/>
  <rect x="158" y="80" width="6" height="6" fill="#B8860B"/>
  <rect x="164" y="80" width="6" height="6" fill="#B8860B"/>
  <rect x="170" y="80" width="6" height="6" fill="#B8860B"/>
  <rect x="176" y="80" width="6" height="6" fill="#B8860B"/>
  <rect x="182" y="80" width="6" height="6" fill="#1A1A17"/>
  <rect x="122" y="86" width="6" height="6" fill="#1A1A17"/>
  <rect x="128" y="86" width="6" height="6" fill="#B8860B"/>
  <rect x="134" y="86" width="6" height="6" fill="#B8860B"/>
  <rect x="140" y="86" width="6" height="6" fill="#B8860B"/>
  <rect x="146" y="86" width="6" height="6" fill="#B8860B"/>
  <rect x="152" y="86" width="6" height="6" fill="#B8860B"/>
  <rect x="158" y="86" width="6" height="6" fill="#B8860B"/>
  <rect x="164" y="86" width="6" height="6" fill="#B8860B"/>
  <rect x="170" y="86" width="6" height="6" fill="#B8860B"/>
  <rect x="176" y="86" width="6" height="6" fill="#B8860B"/>
  <rect x="182" y="86" width="6" height="6" fill="#B8860B"/>
  <rect x="188" y="86" width="6" height="6" fill="#1A1A17"/>
  <rect x="116" y="92" width="6" height="6" fill="#1A1A17"/>
  <rect x="122" y="92" width="6" height="6" fill="#1A1A17"/>
  <rect x="128" y="92" width="6" height="6" fill="#B8860B"/>
  <rect x="134" y="92" width="6" height="6" fill="#B8860B"/>
  <rect x="140" y="92" width="6" height="6" fill="#B8860B"/>
  <rect x="146" y="92" width="6" height="6" fill="#B8860B"/>
  <rect x="152" y="92" width="6" height="6" fill="#B8860B"/>
  <rect x="158" y="92" width="6" height="6" fill="#B8860B"/>
  <rect x="164" y="92" width="6" height="6" fill="#FFEC97"/>
  <rect x="170" y="92" width="6" height="6" fill="#1A1A17"/>
  <rect x="176" y="92" width="6" height="6" fill="#B8860B"/>
  <rect x="182" y="92" width="6" height="6" fill="#B8860B"/>
  <rect x="188" y="92" width="6" height="6" fill="#1A1A17"/>
  <rect x="194" y="92" width="6" height="6" fill="#1A1A17"/>
  <rect x="110" y="98" width="6" height="6" fill="#1A1A17"/>
  <rect x="116" y="98" width="6" height="6" fill="#B8860B"/>
  <rect x="122" y="98" width="6" height="6" fill="#FFEC97"/>
  <rect x="128" y="98" width="6" height="6" fill="#FFEC97"/>
  <rect x="134" y="98" width="6" height="6" fill="#FFEC97"/>
  <rect x="140" y="98" width="6" height="6" fill="#FFEC97"/>
  <rect x="146" y="98" width="6" height="6" fill="#FFEC97"/>
  <rect x="152" y="98" width="6" height="6" fill="#B8860B"/>
  <rect x="158" y="98" width="6" height="6" fill="#B8860B"/>
  <rect x="164" y="98" width="6" height="6" fill="#1A1A17"/>
  <rect x="170" y="98" width="6" height="6" fill="#1A1A17"/>
  <rect x="176" y="98" width="6" height="6" fill="#B8860B"/>
  <rect x="182" y="98" width="6" height="6" fill="#B8860B"/>
  <rect x="188" y="98" width="6" height="6" fill="#1A1A17"/>
  <rect x="104" y="104" width="6" height="6" fill="#1A1A17"/>
  <rect x="110" y="104" width="6" height="6" fill="#B8860B"/>
  <rect x="116" y="104" width="6" height="6" fill="#FFEC97"/>
  <rect x="122" y="104" width="6" height="6" fill="#FFEC97"/>
  <rect x="128" y="104" width="6" height="6" fill="#FFEC97"/>
  <rect x="134" y="104" width="6" height="6" fill="#FFEC97"/>
  <rect x="140" y="104" width="6" height="6" fill="#FFEC97"/>
  <rect x="146" y="104" width="6" height="6" fill="#FFEC97"/>
  <rect x="152" y="104" width="6" height="6" fill="#B8860B"/>
  <rect x="158" y="104" width="6" height="6" fill="#B8860B"/>
  <rect x="164" y="104" width="6" height="6" fill="#B8860B"/>
  <rect x="170" y="104" width="6" height="6" fill="#B8860B"/>
  <rect x="176" y="104" width="6" height="6" fill="#B8860B"/>
  <rect x="182" y="104" width="6" height="6" fill="#1A1A17"/>
  <rect x="98" y="110" width="6" height="6" fill="#1A1A17"/>
  <rect x="104" y="110" width="6" height="6" fill="#B8860B"/>
  <rect x="110" y="110" width="6" height="6" fill="#FFEC97"/>
  <rect x="116" y="110" width="6" height="6" fill="#FFEC97"/>
  <rect x="122" y="110" width="6" height="6" fill="#FFEC97"/>
  <rect x="128" y="110" width="6" height="6" fill="#FFEC97"/>
  <rect x="134" y="110" width="6" height="6" fill="#FFEC97"/>
  <rect x="140" y="110" width="6" height="6" fill="#FFEC97"/>
  <rect x="146" y="110" width="6" height="6" fill="#FFEC97"/>
  <rect x="152" y="110" width="6" height="6" fill="#B8860B"/>
  <rect x="158" y="110" width="6" height="6" fill="#B8860B"/>
  <rect x="164" y="110" width="6" height="6" fill="#B8860B"/>
  <rect x="170" y="110" width="6" height="6" fill="#B8860B"/>
  <rect x="176" y="110" width="6" height="6" fill="#1A1A17"/>
  <rect x="92" y="116" width="6" height="6" fill="#1A1A17"/>
  <rect x="98" y="116" width="6" height="6" fill="#B8860B"/>
  <rect x="104" y="116" width="6" height="6" fill="#FFEC97"/>
  <rect x="110" y="116" width="6" height="6" fill="#FFEC97"/>
  <rect x="116" y="116" width="6" height="6" fill="#FFEC97"/>
  <rect x="122" y="116" width="6" height="6" fill="#FFEC97"/>
  <rect x="128" y="116" width="6" height="6" fill="#FFEC97"/>
  <rect x="134" y="116" width="6" height="6" fill="#FFEC97"/>
  <rect x="140" y="116" width="6" height="6" fill="#FFEC97"/>
  <rect x="146" y="116" width="6" height="6" fill="#B8860B"/>
  <rect x="152" y="116" width="6" height="6" fill="#B8860B"/>
  <rect x="158" y="116" width="6" height="6" fill="#B8860B"/>
  <rect x="164" y="116" width="6" height="6" fill="#1A1A17"/>
  <rect x="170" y="116" width="6" height="6" fill="#1A1A17"/>
  <rect x="92" y="122" width="6" height="6" fill="#1A1A17"/>
  <rect x="98" y="122" width="6" height="6" fill="#B8860B"/>
  <rect x="104" y="122" width="6" height="6" fill="#FFEC97"/>
  <rect x="110" y="122" width="6" height="6" fill="#FFEC97"/>
  <rect x="116" y="122" width="6" height="6" fill="#FFEC97"/>
  <rect x="122" y="122" width="6" height="6" fill="#FFEC97"/>
  <rect x="128" y="122" width="6" height="6" fill="#FFEC97"/>
  <rect x="134" y="122" width="6" height="6" fill="#FFEC97"/>
  <rect x="140" y="122" width="6" height="6" fill="#B8860B"/>
  <rect x="146" y="122" width="6" height="6" fill="#B8860B"/>
  <rect x="152" y="122" width="6" height="6" fill="#B8860B"/>
  <rect x="158" y="122" width="6" height="6" fill="#1A1A17"/>
  <rect x="92" y="128" width="6" height="6" fill="#1A1A17"/>
  <rect x="98" y="128" width="6" height="6" fill="#B8860B"/>
  <rect x="104" y="128" width="6" height="6" fill="#FFEC97"/>
  <rect x="110" y="128" width="6" height="6" fill="#FFEC97"/>
  <rect x="116" y="128" width="6" height="6" fill="#FFEC97"/>
  <rect x="122" y="128" width="6" height="6" fill="#FFEC97"/>
  <rect x="128" y="128" width="6" height="6" fill="#FFEC97"/>
  <rect x="134" y="128" width="6" height="6" fill="#B8860B"/>
  <rect x="140" y="128" width="6" height="6" fill="#B8860B"/>
  <rect x="146" y="128" width="6" height="6" fill="#B8860B"/>
  <rect x="152" y="128" width="6" height="6" fill="#1A1A17"/>
  <rect x="98" y="134" width="6" height="6" fill="#1A1A17"/>
  <rect x="104" y="134" width="6" height="6" fill="#B8860B"/>
  <rect x="110" y="134" width="6" height="6" fill="#FFEC97"/>
  <rect x="116" y="134" width="6" height="6" fill="#FFEC97"/>
  <rect x="122" y="134" width="6" height="6" fill="#FFEC97"/>
  <rect x="128" y="134" width="6" height="6" fill="#FFEC97"/>
  <rect x="134" y="134" width="6" height="6" fill="#B8860B"/>
  <rect x="140" y="134" width="6" height="6" fill="#B8860B"/>
  <rect x="146" y="134" width="6" height="6" fill="#1A1A17"/>
  <rect x="104" y="140" width="6" height="6" fill="#1A1A17"/>
  <rect x="110" y="140" width="6" height="6" fill="#B8860B"/>
  <rect x="116" y="140" width="6" height="6" fill="#FFEC97"/>
  <rect x="122" y="140" width="6" height="6" fill="#FFEC97"/>
  <rect x="128" y="140" width="6" height="6" fill="#FFEC97"/>
  <rect x="134" y="140" width="6" height="6" fill="#B8860B"/>
  <rect x="140" y="140" width="6" height="6" fill="#1A1A17"/>
  <rect x="98" y="146" width="6" height="6" fill="#1A1A17"/>
  <rect x="104" y="146" width="6" height="6" fill="#1A1A17"/>
  <rect x="110" y="146" width="6" height="6" fill="#1A1A17"/>
  <rect x="116" y="146" width="6" height="6" fill="#B8860B"/>
  <rect x="122" y="146" width="6" height="6" fill="#1A1A17"/>
  <rect x="128" y="146" width="6" height="6" fill="#B8860B"/>
  <rect x="134" y="146" width="6" height="6" fill="#1A1A17"/>
  <rect x="92" y="152" width="6" height="6" fill="#1A1A17"/>
  <rect x="98" y="152" width="6" height="6" fill="#B8860B"/>
  <rect x="104" y="152" width="6" height="6" fill="#B8860B"/>
  <rect x="110" y="152" width="6" height="6" fill="#B8860B"/>
  <rect x="116" y="152" width="6" height="6" fill="#B8860B"/>
  <rect x="122" y="152" width="6" height="6" fill="#B8860B"/>
  <rect x="128" y="152" width="6" height="6" fill="#1A1A17"/>
  <rect x="134" y="152" width="6" height="6" fill="#1A1A17"/>
  <rect x="86" y="158" width="6" height="6" fill="#1A1A17"/>
  <rect x="92" y="158" width="6" height="6" fill="#B8860B"/>
  <rect x="98" y="158" width="6" height="6" fill="#B8860B"/>
  <rect x="104" y="158" width="6" height="6" fill="#B8860B"/>
  <rect x="110" y="158" width="6" height="6" fill="#B8860B"/>
  <rect x="116" y="158" width="6" height="6" fill="#1A1A17"/>
  <rect x="122" y="158" width="6" height="6" fill="#1A1A17"/>
  <rect x="86" y="164" width="6" height="6" fill="#1A1A17"/>
  <rect x="92" y="164" width="6" height="6" fill="#B8860B"/>
  <rect x="98" y="164" width="6" height="6" fill="#B8860B"/>
  <rect x="104" y="164" width="6" height="6" fill="#B8860B"/>
  <rect x="110" y="164" width="6" height="6" fill="#1A1A17"/>
  <rect x="92" y="170" width="6" height="6" fill="#1A1A17"/>
  <rect x="98" y="170" width="6" height="6" fill="#1A1A17"/>
  <rect x="104" y="170" width="6" height="6" fill="#1A1A17"/>
</svg>
